<svg width="152" height="40" viewBox="0 0 152 40" fill="none" xmlns="http://www.w3.org/2000/svg">
<path d="M17.4688 20.5625V26.0938C17.4688 27.1562 17.526 27.9479 17.6406 28.4688C17.7656 28.9792 17.9896 29.401 18.3125 29.7344C18.5938 30.026 18.9167 30.2448 19.2812 30.3906C19.6562 30.526 20.1458 30.6094 20.75 30.6406V31H10.7656V30.6406C11.3698 30.6094 11.8542 30.526 12.2188 30.3906C12.5938 30.2448 12.9219 30.026 13.2031 29.7344C13.5365 29.401 13.7604 28.9792 13.875 28.4688C13.9896 27.9583 14.0469 27.1667 14.0469 26.0938V14.5781C14.0469 13.5052 13.9896 12.7135 13.875 12.2031C13.7604 11.6927 13.5365 11.2708 13.2031 10.9375C12.9219 10.6354 12.5938 10.4167 12.2188 10.2812C11.8438 10.1458 11.3594 10.0625 10.7656 10.0312V9.67188H18.2969C19.5573 9.67188 20.3854 9.67708 20.7812 9.6875C22.3958 9.76042 23.6615 9.97917 24.5781 10.3438C25.6094 10.7604 26.4062 11.3854 26.9688 12.2188C27.5417 13.0417 27.8281 14 27.8281 15.0938C27.8281 16.7188 27.2135 18.0208 25.9844 19C25.6094 19.2917 25.1927 19.5312 24.7344 19.7188C24.2865 19.9062 23.6823 20.0833 22.9219 20.25C23.5469 20.5104 24.0104 20.7812 24.3125 21.0625C24.5521 21.2812 24.7708 21.5573 24.9688 21.8906C25.1667 22.2135 25.4635 22.7917 25.8594 23.625C26.7865 25.5312 27.4844 26.9271 27.9531 27.8125C28.4323 28.6875 28.8333 29.3229 29.1562 29.7188C29.4167 30.0417 29.6667 30.2656 29.9062 30.3906C30.1562 30.5156 30.4948 30.599 30.9219 30.6406V31H25.7344C25.474 30.4271 25.3073 30.0625 25.2344 29.9062L24.1406 27.4219C23.4844 25.9323 22.8229 24.6146 22.1562 23.4688C21.4896 22.3333 20.8802 21.5573 20.3281 21.1406C20.0469 20.9323 19.7448 20.7865 19.4219 20.7031C19.099 20.6094 18.7031 20.5625 18.2344 20.5625H17.4688ZM17.4688 20.2188H18.0625C19.3542 20.2188 20.276 20.1458 20.8281 20C21.3906 19.8542 21.9167 19.5521 22.4062 19.0938C23.5 18.0521 24.0469 16.7604 24.0469 15.2188C24.0469 14.3958 23.8854 13.625 23.5625 12.9062C23.25 12.1771 22.8125 11.5781 22.25 11.1094C21.8125 10.7552 21.2917 10.5104 20.6875 10.375C20.0833 10.2292 19.224 10.1562 18.1094 10.1562H17.4688V20.2188Z" fill="#101010"/>
<path d="M64.7656 31V30.6406C65.3698 30.6094 65.8542 30.526 66.2188 30.3906C66.5938 30.2448 66.9219 30.026 67.2031 29.7344C67.5365 29.401 67.7604 28.9792 67.875 28.4688C67.9896 27.9583 68.0469 27.1667 68.0469 26.0938V14.5781C68.0469 13.5052 67.9896 12.7135 67.875 12.2031C67.7604 11.6927 67.5365 11.2708 67.2031 10.9375C66.9219 10.6354 66.5938 10.4167 66.2188 10.2812C65.8438 10.1458 65.3594 10.0625 64.7656 10.0312V9.67188H75.0312C76.0729 9.67188 76.7552 9.68229 77.0781 9.70312C78.2656 9.79688 79.25 10.0781 80.0312 10.5469C80.7083 10.9635 81.2292 11.5104 81.5938 12.1875C81.9688 12.8646 82.1562 13.625 82.1562 14.4688C82.1562 15.8333 81.7344 16.9531 80.8906 17.8281C80.5885 18.151 80.2448 18.4219 79.8594 18.6406C79.474 18.849 78.9167 19.0833 78.1875 19.3438C79.1875 19.5104 79.9635 19.6927 80.5156 19.8906C81.0677 20.0885 81.5677 20.3646 82.0156 20.7188C82.6823 21.2604 83.1979 21.9375 83.5625 22.75C83.9375 23.5521 84.125 24.4219 84.125 25.3594C84.125 26.3073 83.9323 27.1771 83.5469 27.9688C83.1719 28.75 82.6458 29.3802 81.9688 29.8594C81.3542 30.2865 80.6198 30.5833 79.7656 30.75C78.9219 30.9167 77.7292 31 76.1875 31H64.7656ZM71.4688 10.1562V19.4375H72.7344C73.3281 19.4375 73.9427 19.3958 74.5781 19.3125C75.1302 19.2292 75.5729 19.1302 75.9062 19.0156C76.25 18.901 76.5625 18.7448 76.8438 18.5469C77.375 18.151 77.7812 17.6458 78.0625 17.0312C78.3542 16.4062 78.5 15.7188 78.5 14.9688C78.5 14.1771 78.349 13.4271 78.0469 12.7188C77.7552 12 77.3646 11.4427 76.875 11.0469C76.4479 10.7031 75.9583 10.4688 75.4062 10.3438C74.8646 10.2188 74.0365 10.1562 72.9219 10.1562H71.4688ZM71.4688 19.9219V26.3594C71.4688 27.1406 71.5208 27.7708 71.625 28.25C71.7396 28.7292 71.9219 29.1354 72.1719 29.4688C72.7031 30.1667 73.6146 30.5156 74.9062 30.5156C76.5833 30.5156 77.9062 30.0573 78.875 29.1406C79.8542 28.224 80.3438 26.974 80.3438 25.3906C80.3438 24.4844 80.1927 23.6458 79.8906 22.875C79.5885 22.0938 79.1823 21.4948 78.6719 21.0781C77.7344 20.3073 76.2656 19.9219 74.2656 19.9219H71.4688Z" fill="#101010"/>
<path d="M105.713 29.4844L105.978 29.6406C105.603 30.7344 104.744 31.2812 103.4 31.2812C102.66 31.2812 102.046 31.099 101.556 30.7344C101.233 30.4948 100.9 30.0781 100.556 29.4844C99.8583 30.1094 99.3323 30.5208 98.9781 30.7188C98.301 31.0938 97.5146 31.2812 96.6188 31.2812C95.4729 31.2812 94.5615 31.0052 93.8844 30.4531C93.2177 29.901 92.8844 29.1562 92.8844 28.2188C92.8844 27.3542 93.1604 26.6302 93.7125 26.0469C94.025 25.724 94.3844 25.4688 94.7906 25.2812C95.1969 25.0833 95.7854 24.8854 96.5563 24.6875C97.4625 24.4583 98.1292 24.2656 98.5563 24.1094C98.9938 23.9531 99.3583 23.7656 99.65 23.5469C99.9833 23.3073 100.213 23.026 100.338 22.7031C100.463 22.3802 100.525 21.9323 100.525 21.3594C100.525 20.1406 100.296 19.25 99.8375 18.6875C99.6292 18.4271 99.3583 18.2188 99.025 18.0625C98.7021 17.9062 98.3635 17.8281 98.0094 17.8281C97.5823 17.8281 97.2021 17.9375 96.8688 18.1562C96.5354 18.375 96.2854 18.6771 96.1188 19.0625L95.7281 19.9688C95.5198 20.4583 95.1448 20.7031 94.6031 20.7031C94.249 20.7031 93.9521 20.5885 93.7125 20.3594C93.4729 20.1198 93.3531 19.8229 93.3531 19.4688C93.3531 18.9375 93.7281 18.4896 94.4781 18.125C94.8844 17.9375 95.3844 17.7865 95.9781 17.6719C96.5823 17.5469 97.1708 17.4844 97.7438 17.4844C98.3896 17.4844 99.0615 17.5677 99.7594 17.7344C100.457 17.901 101.041 18.1146 101.509 18.375C102.186 18.7604 102.608 19.2604 102.775 19.875C102.858 20.1875 102.9 20.7135 102.9 21.4531V27.2344C102.9 28.2135 102.942 28.8802 103.025 29.2344C103.202 29.974 103.629 30.3438 104.306 30.3438C104.629 30.3438 104.879 30.2865 105.056 30.1719C105.244 30.0573 105.463 29.8281 105.713 29.4844ZM100.556 23.3281C99.9938 23.7969 99.374 24.2083 98.6969 24.5625C97.9365 24.9688 97.4104 25.276 97.1188 25.4844C96.8271 25.6927 96.5615 25.9427 96.3219 26.2344C95.8323 26.8385 95.5875 27.5417 95.5875 28.3438C95.5875 29.0312 95.775 29.599 96.15 30.0469C96.5354 30.4948 97.0198 30.7188 97.6031 30.7188C98.1135 30.7188 98.5927 30.5625 99.0406 30.25C99.499 29.9271 99.8427 29.5 100.072 28.9688C100.395 28.2708 100.556 27.2604 100.556 25.9375V23.3281Z" fill="#101010"/>
<path d="M116.847 17.4531C116.993 18.0573 117.066 18.6198 117.066 19.1406V19.3906C118.357 18.1198 119.894 17.4844 121.675 17.4844C123.008 17.4844 124.081 17.7969 124.894 18.4219C125.696 19.0365 126.097 19.9115 126.097 21.0469V27.6719C126.097 28.3802 126.139 28.901 126.222 29.2344C126.305 29.5573 126.467 29.8281 126.706 30.0469C126.998 30.3281 127.534 30.5417 128.316 30.6875V31H121.425V30.6875C122.05 30.6042 122.498 30.4896 122.769 30.3438C123.04 30.1875 123.258 29.9271 123.425 29.5625C123.54 29.3229 123.618 28.9635 123.659 28.4844C123.711 27.9948 123.737 27.2969 123.737 26.3906V23.0781C123.737 21.9427 123.696 21.1094 123.612 20.5781C123.54 20.0469 123.394 19.6198 123.175 19.2969C122.935 18.9323 122.592 18.651 122.144 18.4531C121.696 18.2448 121.201 18.1406 120.659 18.1406C120.076 18.1406 119.529 18.2552 119.019 18.4844C118.519 18.7135 118.123 19.026 117.831 19.4219C117.519 19.8385 117.31 20.3125 117.206 20.8438C117.112 21.3646 117.066 22.2344 117.066 23.4531V26.5156L117.081 27.6719C117.081 28.3802 117.123 28.901 117.206 29.2344C117.29 29.5573 117.451 29.8281 117.691 30.0469C117.982 30.3281 118.519 30.5417 119.3 30.6875V31H112.409V30.6875C113.034 30.6042 113.482 30.4896 113.753 30.3438C114.024 30.1875 114.243 29.9271 114.409 29.5625C114.524 29.3229 114.602 28.9635 114.644 28.4844C114.696 27.9948 114.722 27.2917 114.722 26.375V22.5156C114.722 21.4427 114.696 20.6927 114.644 20.2656C114.592 19.8281 114.477 19.474 114.3 19.2031C114.123 18.9115 113.909 18.7031 113.659 18.5781C113.409 18.4427 113.05 18.3594 112.581 18.3281V18.0156L116.847 17.4531Z" fill="#101010"/>
<path d="M140.122 24.6875L142.966 21.5781C143.549 20.9219 143.94 20.4375 144.137 20.125C144.335 19.8021 144.434 19.4792 144.434 19.1562C144.434 18.7083 144.205 18.3958 143.747 18.2188C143.549 18.1354 143.179 18.0781 142.637 18.0469V17.7188H148.653V18.0469C147.893 18.0469 147.278 18.1771 146.809 18.4375C146.341 18.6979 145.726 19.2396 144.966 20.0625L144.341 20.7656L142.637 22.5938L146.669 27.125C147.002 27.4896 147.221 27.724 147.325 27.8281L148.028 28.5469C148.591 29.1094 148.997 29.4948 149.247 29.7031C149.497 29.9115 149.794 30.1094 150.137 30.2969C150.533 30.5052 151.044 30.6354 151.669 30.6875V31H144.341V30.6875C144.778 30.6458 145.085 30.5729 145.262 30.4688C145.512 30.3125 145.637 30.0938 145.637 29.8125C145.637 29.5104 145.486 29.1927 145.184 28.8594L144.856 28.4844L141.075 24.2969L140.122 25.3438V26.4844L140.137 27.6719C140.137 28.3802 140.179 28.901 140.262 29.2344C140.346 29.5573 140.507 29.8281 140.747 30.0469C141.039 30.3281 141.575 30.5417 142.356 30.6875V31H135.466V30.6875C136.091 30.6042 136.539 30.4896 136.809 30.3438C137.08 30.1875 137.299 29.9271 137.466 29.5625C137.58 29.3229 137.658 28.9635 137.7 28.4844C137.752 27.9948 137.778 27.2917 137.778 26.375V14.1094C137.778 13.0469 137.752 12.2969 137.7 11.8594C137.648 11.4219 137.533 11.0677 137.356 10.7969C137.179 10.5052 136.966 10.2969 136.716 10.1719C136.466 10.0469 136.106 9.96875 135.637 9.9375V9.60938L140.122 9.04688V24.6875Z" fill="#101010"/>
<path fill-rule="evenodd" clip-rule="evenodd" d="M38 2H2V38H38V2ZM0 0V40H40V0H0Z" fill="black"/>
<rect x="48" y="19" width="8" height="2" fill="#101010"/>
</svg>
