<svg width="32" height="33" viewBox="0 0 32 33" fill="none" xmlns="http://www.w3.org/2000/svg">
<path d="M25.2288 10.9677C25.1247 10.9677 25.023 10.9378 24.9368 10.8804C23.9962 10.2566 22.8906 9.92491 21.7597 9.92552H9.77878C8.64666 9.9243 7.5404 10.2566 6.59861 10.8804C6.44154 10.983 6.24197 10.9958 6.0732 10.9134L3.97095 9.87054L4.44092 8.93768L6.28078 9.84916C7.33652 9.21686 8.54626 8.88269 9.7794 8.8833H21.7603C22.9947 8.88208 24.2063 9.21625 25.2626 9.84916L27.0994 8.93768L27.5694 9.87054L25.4671 10.9134C25.3932 10.9488 25.3113 10.9677 25.2288 10.9677Z" fill="#CACACA"/>
<path d="M30.5413 22.0885L25.5065 10.6734L20.4716 22.0885C20.352 22.3598 20.0428 22.4789 19.7818 22.3547C19.5207 22.2305 19.4061 21.9092 19.5256 21.6373L25.0338 9.14984C25.1533 8.87859 25.4625 8.75945 25.7242 8.88366C25.8376 8.93753 25.9285 9.03196 25.9804 9.14984L31.4885 21.6373C31.6087 21.9085 31.494 22.2292 31.2324 22.3541C30.9701 22.4789 30.6615 22.3598 30.5413 22.0885Z" fill="#CACACA"/>
<path d="M19.0145 21.9087H32C32 23.6872 30.4146 25.1286 28.4585 25.1286H22.5561C20.6006 25.1286 19.0145 23.6865 19.0145 21.9087Z" fill="#CACACA"/>
<path d="M23.1266 32.8521H8.40967C8.40967 31.7006 9.35085 30.7671 10.5119 30.7671H21.0238C22.1855 30.7665 23.1266 31.7 23.1266 32.8521Z" fill="#CACACA"/>
<path d="M18.9221 30.7686H12.6147L14.717 28.6836H16.8192L18.9221 30.7686Z" fill="#CACACA"/>
<path d="M16.9275 5.0127H14.6086V29.0812H16.9275V5.0127Z" fill="#CACACA"/>
<path d="M16.9557 5.2482H14.5805L13.9688 2.98393C13.7204 2.06405 14.3238 1.13193 15.3182 0.901964C15.4658 0.867823 15.6168 0.851074 15.7685 0.851074C16.7929 0.851074 17.6231 1.61957 17.6231 2.5678C17.6231 2.70823 17.605 2.84801 17.5681 2.98458L16.9557 5.2482Z" fill="#CACACA"/>
<path d="M11.5268 22.0885L6.49189 10.6734L1.45701 22.0885C1.33746 22.3598 1.02823 22.4789 0.767189 22.3547C0.506144 22.2305 0.391479 21.9092 0.511023 21.6373L6.0192 9.14984C6.13874 8.87859 6.44797 8.75945 6.70963 8.88366C6.82307 8.93753 6.91395 9.03196 6.96579 9.14984L12.474 21.6373C12.5941 21.9085 12.4795 22.2292 12.2178 22.3541C11.9555 22.4789 11.6469 22.3598 11.5268 22.0885Z" fill="#CACACA"/>
<path d="M0 21.9087H12.9855C12.9855 23.6872 11.4001 25.1286 9.44394 25.1286H3.54156C1.5861 25.1286 0 23.6865 0 21.9087Z" fill="#CACACA"/>
</svg>
