<svg width="32" height="33" viewBox="0 0 32 33" fill="none" xmlns="http://www.w3.org/2000/svg">
<path d="M25.2287 10.7302C25.1246 10.7302 25.023 10.6999 24.9368 10.642C23.9962 10.0122 22.8906 9.67721 21.7597 9.67783H9.77877C8.64665 9.67659 7.54039 10.0122 6.5986 10.642C6.44153 10.7456 6.24197 10.7585 6.07319 10.6753L3.97095 9.62231L4.44092 8.68039L6.28077 9.60072C7.33651 8.96229 8.54625 8.62487 9.77938 8.62549H21.7603C22.9947 8.62426 24.2062 8.96167 25.2626 9.60072L27.0994 8.68039L27.5693 9.62231L25.4671 10.6753C25.3932 10.711 25.3113 10.7302 25.2287 10.7302Z" fill="#101010"/>
<path d="M30.5414 21.9549L25.5065 10.4324L20.4716 21.9549C20.3521 22.2287 20.0428 22.349 19.7818 22.2236C19.5207 22.0982 19.4061 21.7739 19.5256 21.4994L25.0338 8.8945C25.1533 8.62071 25.4626 8.50044 25.7242 8.62582C25.8377 8.6802 25.9285 8.77552 25.9804 8.8945L31.4886 21.4994C31.6087 21.7732 31.494 22.0969 31.2324 22.223C30.9701 22.349 30.6615 22.2287 30.5414 21.9549Z" fill="#EC3D08"/>
<path d="M19.0145 21.7734H32C32 23.5686 30.4146 25.0235 28.4584 25.0235H22.5561C20.6006 25.0235 19.0145 23.568 19.0145 21.7734Z" fill="#EC3D08"/>
<path d="M23.1267 32.8201H8.40967C8.40967 31.6574 9.35085 30.7148 10.5119 30.7148H21.0238C22.1855 30.7142 23.1267 31.6567 23.1267 32.8201Z" fill="#101010"/>
<path d="M18.9221 30.7171H12.6147L14.717 28.6118H16.8193L18.9221 30.7171Z" fill="#101010"/>
<path d="M16.9275 4.71826H14.6086V29.0134H16.9275V4.71826Z" fill="#101010"/>
<path d="M16.9557 4.95618H14.5805L13.9688 2.67055C13.7204 1.742 14.3237 0.801087 15.3182 0.568948C15.4657 0.534485 15.6167 0.517578 15.7685 0.517578C16.7928 0.517578 17.623 1.29333 17.623 2.25049C17.623 2.39225 17.605 2.53335 17.5681 2.6712L16.9557 4.95618Z" fill="#101010"/>
<path d="M11.5268 21.9549L6.49189 10.4324L1.45696 21.9549C1.33741 22.2287 1.02818 22.349 0.767131 22.2236C0.506083 22.0982 0.391417 21.7739 0.510962 21.4994L6.01919 8.8945C6.13874 8.62071 6.44797 8.50044 6.70963 8.62582C6.82308 8.6802 6.91395 8.77552 6.9658 8.8945L12.474 21.4994C12.5942 21.7732 12.4795 22.0969 12.2179 22.223C11.9556 22.349 11.647 22.2287 11.5268 21.9549Z" fill="#EC3D08"/>
<path d="M0 21.7734H12.9855C12.9855 23.5686 11.4001 25.0235 9.44392 25.0235H3.54156C1.58609 25.0235 0 23.568 0 21.7734Z" fill="#EC3D08"/>
</svg>
