<svg width="542" height="608" viewBox="0 0 542 608" fill="none" xmlns="http://www.w3.org/2000/svg">
<rect width="356" height="608" fill="#EC3D08"/>
<path d="M15.6464 593.354C15.8417 593.549 16.1583 593.549 16.3535 593.354L19.5355 590.172C19.7308 589.976 19.7308 589.66 19.5355 589.465C19.3402 589.269 19.0237 589.269 18.8284 589.465L16 592.293L13.1716 589.465C12.9763 589.269 12.6597 589.269 12.4644 589.465C12.2692 589.66 12.2692 589.976 12.4644 590.172L15.6464 593.354ZM15.5 88L15.5 593L16.5 593L16.5 88L15.5 88Z" fill="white" fill-opacity="0.2"/>
<path d="M38.072 589.316C38.072 589.94 37.972 590.54 37.772 591.116C37.572 591.684 37.308 592.124 36.98 592.436L36.296 592.088C36.6 591.784 36.848 591.38 37.04 590.876C37.224 590.372 37.316 589.852 37.316 589.316C37.316 588.564 37.18 588 36.908 587.624C36.628 587.248 36.268 587.06 35.828 587.06C35.492 587.06 35.224 587.164 35.024 587.372C34.824 587.572 34.672 587.82 34.568 588.116C34.456 588.412 34.336 588.824 34.208 589.352C34.048 589.984 33.896 590.488 33.752 590.864C33.6 591.24 33.372 591.564 33.068 591.836C32.764 592.1 32.352 592.232 31.832 592.232C31.408 592.232 31.024 592.12 30.68 591.896C30.328 591.672 30.048 591.328 29.84 590.864C29.632 590.4 29.528 589.824 29.528 589.136C29.528 588.656 29.596 588.188 29.732 587.732C29.86 587.268 30.04 586.868 30.272 586.532L30.98 586.832C30.748 587.184 30.576 587.56 30.464 587.96C30.344 588.36 30.284 588.752 30.284 589.136C30.284 589.872 30.428 590.428 30.716 590.804C30.996 591.172 31.36 591.356 31.808 591.356C32.144 591.356 32.416 591.256 32.624 591.056C32.824 590.848 32.98 590.592 33.092 590.288C33.196 589.976 33.312 589.56 33.44 589.04C33.592 588.424 33.744 587.928 33.896 587.552C34.04 587.168 34.264 586.844 34.568 586.58C34.864 586.316 35.268 586.184 35.78 586.184C36.204 586.184 36.592 586.3 36.944 586.532C37.288 586.756 37.564 587.104 37.772 587.576C37.972 588.048 38.072 588.628 38.072 589.316ZM38.072 577.601C38.072 578.433 37.888 579.185 37.52 579.857C37.152 580.521 36.644 581.045 35.996 581.429C35.34 581.805 34.608 581.993 33.8 581.993C32.992 581.993 32.264 581.805 31.616 581.429C30.96 581.045 30.448 580.517 30.08 579.845C29.712 579.173 29.528 578.421 29.528 577.589C29.528 576.965 29.632 576.389 29.84 575.861C30.048 575.333 30.352 574.885 30.752 574.517L31.316 575.081C30.652 575.737 30.32 576.565 30.32 577.565C30.32 578.229 30.472 578.833 30.776 579.377C31.08 579.921 31.496 580.349 32.024 580.661C32.552 580.965 33.144 581.117 33.8 581.117C34.456 581.117 35.048 580.965 35.576 580.661C36.104 580.349 36.52 579.921 36.824 579.377C37.128 578.833 37.28 578.229 37.28 577.565C37.28 576.557 36.944 575.729 36.272 575.081L36.836 574.517C37.236 574.885 37.544 575.337 37.76 575.873C37.968 576.401 38.072 576.977 38.072 577.601ZM38 563.888L35.3 565.808C35.324 566.024 35.336 566.248 35.336 566.48L35.336 568.736L38 568.736L38 569.624L29.6 569.624L29.6 566.48C29.6 565.408 29.856 564.568 30.368 563.96C30.88 563.352 31.584 563.048 32.48 563.048C33.136 563.048 33.692 563.216 34.148 563.552C34.596 563.88 34.92 564.352 35.12 564.968L38 562.916L38 563.888ZM34.58 566.504C34.58 565.672 34.396 565.036 34.028 564.596C33.66 564.156 33.144 563.936 32.48 563.936C31.8 563.936 31.28 564.156 30.92 564.596C30.552 565.036 30.368 565.672 30.368 566.504L30.368 568.736L34.58 568.736L34.58 566.504ZM38.072 554.28C38.072 555.112 37.888 555.868 37.52 556.548C37.144 557.22 36.632 557.748 35.984 558.132C35.336 558.508 34.608 558.696 33.8 558.696C32.992 558.696 32.264 558.508 31.616 558.132C30.968 557.748 30.46 557.22 30.092 556.548C29.716 555.868 29.528 555.112 29.528 554.28C29.528 553.448 29.712 552.7 30.08 552.036C30.448 551.364 30.96 550.836 31.616 550.452C32.264 550.068 32.992 549.876 33.8 549.876C34.608 549.876 35.34 550.068 35.996 550.452C36.644 550.836 37.152 551.364 37.52 552.036C37.888 552.7 38.072 553.448 38.072 554.28ZM37.28 554.28C37.28 553.616 37.132 553.016 36.836 552.48C36.532 551.944 36.116 551.524 35.588 551.22C35.052 550.916 34.456 550.764 33.8 550.764C33.144 550.764 32.552 550.916 32.024 551.22C31.488 551.524 31.072 551.944 30.776 552.48C30.472 553.016 30.32 553.616 30.32 554.28C30.32 554.944 30.472 555.548 30.776 556.092C31.072 556.628 31.488 557.052 32.024 557.364C32.552 557.668 33.144 557.82 33.8 557.82C34.456 557.82 35.052 557.668 35.588 557.364C36.116 557.052 36.532 556.628 36.836 556.092C37.132 555.548 37.28 554.944 37.28 554.28ZM29.6 544.886L29.6 543.998L37.232 543.998L37.232 539.294L38 539.294L38 544.886L29.6 544.886ZM29.6 534.819L29.6 533.931L37.232 533.931L37.232 529.227L38 529.227L38 534.819L29.6 534.819ZM29.6 518.612L29.6 515.192C29.6 514.304 29.78 513.52 30.14 512.84C30.492 512.16 30.988 511.632 31.628 511.256C32.26 510.88 32.984 510.692 33.8 510.692C34.616 510.692 35.344 510.88 35.984 511.256C36.616 511.632 37.112 512.16 37.472 512.84C37.824 513.52 38 514.304 38 515.192L38 518.612L29.6 518.612ZM37.232 515.24C37.232 514.504 37.088 513.86 36.8 513.308C36.504 512.756 36.1 512.328 35.588 512.024C35.068 511.72 34.472 511.568 33.8 511.568C33.128 511.568 32.536 511.72 32.024 512.024C31.504 512.328 31.1 512.756 30.812 513.308C30.516 513.86 30.368 514.504 30.368 515.24L30.368 517.724L37.232 517.724L37.232 515.24ZM38.072 502.026C38.072 502.858 37.888 503.614 37.52 504.294C37.144 504.966 36.632 505.494 35.984 505.878C35.336 506.254 34.608 506.442 33.8 506.442C32.992 506.442 32.264 506.254 31.616 505.878C30.968 505.494 30.46 504.966 30.092 504.294C29.716 503.614 29.528 502.858 29.528 502.026C29.528 501.194 29.712 500.446 30.08 499.782C30.448 499.11 30.96 498.582 31.616 498.198C32.264 497.814 32.992 497.622 33.8 497.622C34.608 497.622 35.34 497.814 35.996 498.198C36.644 498.582 37.152 499.11 37.52 499.782C37.888 500.446 38.072 501.194 38.072 502.026ZM37.28 502.026C37.28 501.362 37.132 500.762 36.836 500.226C36.532 499.69 36.116 499.27 35.588 498.966C35.052 498.662 34.456 498.51 33.8 498.51C33.144 498.51 32.552 498.662 32.024 498.966C31.488 499.27 31.072 499.69 30.776 500.226C30.472 500.762 30.32 501.362 30.32 502.026C30.32 502.69 30.472 503.294 30.776 503.838C31.072 504.374 31.488 504.798 32.024 505.11C32.552 505.414 33.144 505.566 33.8 505.566C34.456 505.566 35.052 505.414 35.588 505.11C36.116 504.798 36.532 504.374 36.836 503.838C37.132 503.294 37.28 502.69 37.28 502.026ZM29.6 481.358L38 484.19L38 485.126L30.836 487.586L38 490.058L38 490.982L29.6 493.814L29.6 492.902L36.824 490.478L29.6 487.97L29.6 487.142L36.86 484.67L29.6 482.21L29.6 481.358ZM29.6 469.71L38 469.71L38 470.442L31.184 475.842L38 475.842L38 476.73L29.6 476.73L29.6 475.998L36.416 470.586L29.6 470.586L29.6 469.71Z" fill="white" fill-opacity="0.2"/>
<rect x="159" y="198" width="352" height="220" rx="10" fill="white" fill-opacity="0.1"/>
<rect x="126" y="129" width="352" height="216" rx="10" fill="black" fill-opacity="0.05"/>
<rect x="190" y="265" width="352" height="216" rx="10" fill="black" fill-opacity="0.05"/>
</svg>
